<?xml version="1.0" encoding="utf-8"?>
<!-- Generator: Adobe Illustrator 16.0.0, SVG Export Plug-In . SVG Version: 6.00 Build 0)  -->
<!DOCTYPE svg PUBLIC "-//W3C//DTD SVG 1.1 Basic//EN" "http://www.w3.org/Graphics/SVG/1.1/DTD/svg11-basic.dtd">
<svg version="1.1" baseProfile="basic" id="Layer_1"
	 xmlns="http://www.w3.org/2000/svg" xmlns:xlink="http://www.w3.org/1999/xlink" x="0px" y="0px" width="50px" height="50px"
	 viewBox="0 0 50 50" xml:space="preserve">
<circle fill="#151A30" cx="25" cy="25" r="24.75"/>
<path fill-rule="evenodd" clip-rule="evenodd" fill="#FFFFFF" d="M30.804,12.443c0,1.401,0,2.816,0,4.315
	c-0.5,0-0.986-0.004-1.476,0.002c-0.525,0.007-1.053,0-1.577,0.045c-0.557,0.048-0.814,0.304-0.831,0.86
	c-0.027,0.972-0.007,1.945-0.007,2.972c1.3,0,2.585,0,3.901,0c-0.126,1.433-0.248,2.81-0.373,4.226c-1.167,0-2.313,0-3.518,0
	c0,4.262,0,8.486,0,12.753c-1.724,0-3.386,0-5.095,0c0-4.203,0-8.399,0-12.644c-0.896,0-1.75,0-2.644,0c0-1.458,0-2.867,0-4.318
	c0.861,0,1.717,0,2.633,0c0-0.547-0.006-1.053,0.002-1.559c0.016-0.973-0.057-1.959,0.081-2.916
	c0.304-2.129,1.473-3.386,3.588-3.638c1.719-0.204,3.472-0.117,5.21-0.157C30.725,12.383,30.752,12.414,30.804,12.443z"/>
</svg>
