<?xml version="1.0" encoding="utf-8"?>
<!-- Generator: Adobe Illustrator 16.0.0, SVG Export Plug-In . SVG Version: 6.00 Build 0)  -->
<!DOCTYPE svg PUBLIC "-//W3C//DTD SVG 1.1 Basic//EN" "http://www.w3.org/Graphics/SVG/1.1/DTD/svg11-basic.dtd">
<svg version="1.1" baseProfile="basic" id="Layer_1"
	 xmlns="http://www.w3.org/2000/svg" xmlns:xlink="http://www.w3.org/1999/xlink" x="0px" y="0px" width="50px" height="50px"
	 viewBox="0 0 50 50" xml:space="preserve">
<circle fill="#151A30" cx="25" cy="25" r="24.375"/>
<g>
	<path fill-rule="evenodd" clip-rule="evenodd" fill="#FFFFFF" d="M22.458,20.874c1.463,0,2.91,0,4.375,0c0,0.689,0,1.369,0,2.122
		c0.101-0.072,0.176-0.101,0.207-0.156c0.722-1.238,1.842-1.908,3.2-2.213c0.443-0.099,0.907-0.145,1.359-0.125
		c0.954,0.042,1.904,0.161,2.773,0.613c0.719,0.372,1.277,0.913,1.686,1.618c0.36,0.623,0.57,1.299,0.706,1.992
		c0.104,0.534,0.144,1.079,0.175,1.623c0.176,3.163,0.051,6.326,0.082,9.49c0,0.013-0.006,0.025-0.013,0.052
		c-1.531,0-3.065,0-4.622,0c0-0.084,0-0.164,0-0.247c0-2.573,0.013-5.149-0.009-7.723c-0.007-0.704-0.072-1.413-0.361-2.078
		c-0.292-0.685-0.787-1.114-1.516-1.245c-0.593-0.106-1.186-0.08-1.757,0.124c-0.7,0.251-1.158,0.756-1.409,1.447
		c-0.207,0.568-0.288,1.156-0.295,1.758c-0.013,2.613-0.025,5.228-0.041,7.841c0,0.034-0.003,0.067-0.006,0.119
		c-1.507,0-3.013,0-4.535,0C22.458,30.89,22.458,25.889,22.458,20.874z"/>
	<path fill-rule="evenodd" clip-rule="evenodd" fill="#FFFFFF" d="M19.37,20.879c0,5.01,0,10.005,0,15.012c-1.525,0-3.042,0-4.573,0
		c0-4.997,0-9.996,0-15.012C16.311,20.879,17.832,20.879,19.37,20.879z"/>
	<path fill-rule="evenodd" clip-rule="evenodd" fill="#FFFFFF" d="M19.792,16.062c-0.011,1.487-1.188,2.706-2.707,2.679
		c-1.657-0.03-2.673-1.272-2.658-2.68c0.019-1.614,1.192-2.69,2.694-2.685C18.635,13.382,19.778,14.577,19.792,16.062z"/>
</g>
</svg>
