<?xml version="1.0" encoding="utf-8"?>
<!-- Generator: Adobe Illustrator 16.0.0, SVG Export Plug-In . SVG Version: 6.00 Build 0)  -->
<!DOCTYPE svg PUBLIC "-//W3C//DTD SVG 1.1 Basic//EN" "http://www.w3.org/Graphics/SVG/1.1/DTD/svg11-basic.dtd">
<svg version="1.1" baseProfile="basic" id="Layer_1"
	 xmlns="http://www.w3.org/2000/svg" xmlns:xlink="http://www.w3.org/1999/xlink" x="0px" y="0px" width="50px" height="50px"
	 viewBox="0 0 50 50" xml:space="preserve">
<circle fill="#151A30" cx="25" cy="25" r="24.375"/>
<g>
	<g>
		<path fill-rule="evenodd" clip-rule="evenodd" fill="#FFFFFF" d="M12.211,32.991c2.786,0.256,5.326-0.392,7.669-2.128
			c-1.18-0.069-2.172-0.414-3.036-1.076c-0.865-0.662-1.485-1.506-1.832-2.573c0.733,0.058,1.453,0.125,2.211-0.086
			c-2.95-0.84-4.136-3.34-4.028-5.179c0.358,0.14,0.705,0.301,1.066,0.406c0.368,0.107,0.748,0.158,1.145,0.199
			c-1.074-0.829-1.789-1.886-2.076-3.198c-0.289-1.311-0.08-2.557,0.604-3.762c2.833,3.322,6.413,5.143,10.79,5.468
			c-0.022-0.249-0.042-0.469-0.062-0.691c-0.276-2.696,1.55-5.098,4.166-5.618c1.795-0.358,3.406,0.102,4.754,1.369
			c0.123,0.115,0.219,0.158,0.404,0.116c0.967-0.214,1.883-0.563,2.758-1.028c0.1-0.052,0.195-0.106,0.357-0.191
			c-0.381,1.218-1.107,2.103-2.072,2.823c0.953-0.09,1.844-0.369,2.762-0.69c-0.197,0.266-0.369,0.557-0.6,0.792
			c-0.584,0.592-1.184,1.173-1.803,1.727c-0.154,0.137-0.207,0.255-0.201,0.442c0.068,2.25-0.377,4.404-1.309,6.444
			c-1.992,4.351-5.26,7.215-9.93,8.385c-1.698,0.426-3.431,0.508-5.179,0.349c-2.271-0.207-4.374-0.92-6.326-2.09
			c-0.082-0.046-0.152-0.101-0.23-0.153C12.208,33.041,12.211,33.025,12.211,32.991z"/>
	</g>
</g>
</svg>
